<svg width="171" height="264" viewBox="0 0 171 264" fill="none" xmlns="http://www.w3.org/2000/svg">
    <path fill-rule="evenodd" clip-rule="evenodd"
        d="M51.7775 254.426C44.8725 258.539 38.6097 260.989 32.0398 260.989C15.0319 260.989 0.816879 247.026 0 230.318L33.1429 210.573L84.6552 233.613L51.7775 254.44V254.426Z"
        fill="#71B0D1" />
    <path fill-rule="evenodd" clip-rule="evenodd"
        d="M71.4734 169.604L46.8693 158.761C35.8659 153.874 25.4838 149.754 25.4838 137.655C25.4838 131.371 27.3899 128.089 30.3711 124.815L82.4559 147.799L69.5464 155.249C65.9926 157.434 63.528 159.354 63.528 162.091C63.528 165.051 66.9143 167.572 71.4734 169.639V169.604Z"
        fill="#A4D0A0" />
    <path fill-rule="evenodd" clip-rule="evenodd"
        d="M95.6515 56.0156L70.419 71.3268C68.1778 72.6813 65.1826 74.8596 65.1826 78.2249C65.1826 82.044 71.0055 84.9764 76.1861 87.434L44.607 73.4703C35.3072 69.3789 26.0283 64.7289 26.0283 53.516C25.9801 49.3112 27.2176 45.1919 29.5751 41.7097L97.8369 0C106.02 4.63596 113.951 14.0196 113.951 26.5939C113.951 40.062 107.13 49.0756 95.6515 55.9806V56.0156Z"
        fill="#71B0D1" />
    <path fill-rule="evenodd" clip-rule="evenodd"
        d="M149.356 105.336L143.072 108.889L90.9319 85.8491L151.535 49.3549C159.71 54.0746 167.732 63.3675 167.732 75.9349C167.732 89.3959 161.093 98.6818 149.335 105.308L149.356 105.336Z"
        fill="#A4D0A0" />
    <path fill-rule="evenodd" clip-rule="evenodd"
        d="M105.322 149.608L136.16 163.159C147.715 168.34 151.269 174.414 151.269 182.087C151.269 186.451 148.805 190.836 145.265 193.845L93.4034 170.805L102.18 165.917C109.594 161.819 112.059 159.354 112.059 156.624C112.059 153.783 110.328 151.912 105.322 149.642V149.608Z"
        fill="#71B0D1" />
    <path fill-rule="evenodd" clip-rule="evenodd"
        d="M160.283 263.447C147.164 253.344 133.165 246.509 116.15 238.787L37.5066 203.996C17.7479 195.185 4.6499 183.449 4.6499 163.69C4.6499 144.49 13.9428 135.197 26.0284 127.552L30.3921 124.815C27.3899 128.089 25.5048 131.371 25.5048 137.655C25.5048 149.754 35.8868 153.846 46.8902 158.761L138.353 199.081C154.264 205.916 168.829 217.674 168.829 237.691C168.829 248.694 164.64 258.539 160.276 263.447H160.283Z"
        fill="#22A947" />
    <path fill-rule="evenodd" clip-rule="evenodd"
        d="M150.997 190.27L145.265 193.838C148.805 190.829 151.269 186.444 151.269 182.08C151.269 174.4 147.708 168.333 136.16 163.152L38.3444 120.088C18.5997 111.361 6.30457 100.078 6.30457 80.4103C6.30457 62.2993 15.3182 50.472 29.5961 41.7447C27.2326 45.2225 25.9878 49.3393 26.0284 53.544C26.0284 64.7569 35.3073 69.4068 44.6071 73.4982L139.707 115.445C157.001 123.125 171 134.645 171 155.759C171 172.229 163.32 182.611 150.997 190.263V190.27Z"
        fill="#0072A9" />
</svg>
