<svg width="521" height="155" viewBox="0 0 521 155" fill="none" xmlns="http://www.w3.org/2000/svg">
    <path
        d="M22.2918 91.632C19.6678 91.632 17.0758 91.376 14.5158 90.864C11.9558 90.352 9.61976 89.616 7.50776 88.656C5.39576 87.632 3.69976 86.416 2.41976 85.008C1.20376 83.536 0.595764 81.904 0.595764 80.112V68.88H3.28376C4.30776 75.536 6.35576 80.272 9.42776 83.088C12.5638 85.904 16.8198 87.312 22.1958 87.312C24.6278 87.312 26.7398 86.96 28.5318 86.256C30.3878 85.552 31.7958 84.528 32.7558 83.184C33.7798 81.776 34.2918 80.048 34.2918 78C34.2918 75.248 33.3958 72.976 31.6038 71.184C29.8758 69.328 27.4758 67.472 24.4038 65.616L12.5958 58.512C8.24376 55.952 5.17176 53.328 3.37976 50.64C1.58776 47.952 0.691764 44.848 0.691764 41.328C0.691764 36.272 2.61176 32.272 6.45176 29.328C10.3558 26.384 15.6038 24.912 22.1958 24.912C24.8198 24.912 27.4118 25.168 29.9718 25.68C32.5318 26.192 34.8678 26.96 36.9798 27.984C39.0918 28.944 40.7558 30.128 41.9718 31.536C43.2518 32.944 43.8918 34.576 43.8918 36.432V47.664H41.2038C40.1158 41.008 38.0678 36.272 35.0598 33.456C32.0518 30.64 28.1158 29.232 23.2518 29.232C20.9478 29.232 18.9318 29.616 17.2038 30.384C15.5398 31.152 14.2598 32.24 13.3638 33.648C12.4678 34.992 12.0198 36.624 12.0198 38.544C12.0198 41.232 12.9158 43.408 14.7078 45.072C16.5638 46.736 18.9958 48.464 22.0038 50.256L33.8118 57.264C38.1638 59.824 41.3318 62.352 43.3158 64.848C45.3638 67.28 46.3878 70.256 46.3878 73.776C46.3878 79.28 44.3078 83.632 40.1478 86.832C35.9878 90.032 30.0358 91.632 22.2918 91.632Z"
        fill="#0072A9" />
    <path
        d="M112.392 90.96C110.024 90.96 107.624 90.672 105.192 90.096C102.76 89.52 100.2 88.4 97.5123 86.736C94.8883 85.072 92.0403 82.64 88.9683 79.44L73.5123 63.312V90H61.0323L60.9363 39.12C60.9363 36.24 60.5203 33.936 59.6883 32.208C58.9203 30.416 57.0963 29.52 54.2163 29.52H53.2563V26.64H64.7763C67.0163 26.64 68.7443 27.024 69.9603 27.792C71.2403 28.56 72.1363 29.84 72.6483 31.632C73.2243 33.424 73.5123 35.92 73.5123 39.12V57.36L90.1203 36.72C91.5283 34.928 93.0643 33.264 94.7283 31.728C96.3923 30.192 98.2483 28.976 100.296 28.08C102.344 27.12 104.616 26.64 107.112 26.64H113.832V30C110.184 30 106.888 30.48 103.944 31.44C101 32.336 98.4403 34.128 96.2643 36.816L81.9603 54.48L104.136 77.52C105.736 79.248 107.464 80.88 109.32 82.416C111.24 83.888 113.096 85.104 114.888 86.064C116.68 86.96 118.184 87.504 119.4 87.696V90C118.696 90.256 117.704 90.48 116.424 90.672C115.208 90.864 113.864 90.96 112.392 90.96Z"
        fill="#0072A9" />
    <path
        d="M147.083 90V64.656L130.091 39.12C129.003 37.456 127.723 35.856 126.251 34.32C124.843 32.784 123.371 31.472 121.835 30.384C120.299 29.296 118.795 28.688 117.323 28.56V26.64H127.787C130.219 26.64 132.395 27.184 134.315 28.272C136.299 29.36 138.059 30.704 139.595 32.304C141.131 33.904 142.411 35.536 143.435 37.2L156.491 56.88L175.115 26.64H181.355L159.563 62.064V90H147.083Z"
        fill="#0072A9" />
    <path
        d="M192.558 90V39.12C192.558 36.24 192.142 33.936 191.31 32.208C190.542 30.416 188.718 29.52 185.838 29.52H184.878V26.64H196.398C198.638 26.64 200.366 27.024 201.582 27.792C202.862 28.56 203.758 29.84 204.27 31.632C204.782 33.424 205.038 35.92 205.038 39.12V85.68H238.158V90H192.558Z"
        fill="#0072A9" />
    <path
        d="M255.113 90C252.873 90 251.113 89.648 249.833 88.944C248.617 88.176 247.753 86.896 247.241 85.104C246.729 83.248 246.473 80.72 246.473 77.52V26.64H258.953V77.52C258.953 80.4 259.337 82.736 260.105 84.528C260.937 86.256 262.793 87.12 265.673 87.12H266.633V90H255.113Z"
        fill="#0072A9" />
    <path
        d="M324.877 90.288L284.173 42.48V90H279.373V38.16C279.373 35.728 278.765 33.68 277.549 32.016C276.397 30.352 274.125 29.52 270.733 29.52H270.253V26.64H276.973C280.621 26.64 283.565 27.12 285.805 28.08C288.109 29.04 289.997 30.48 291.469 32.4L324.493 70.8V26.64H329.293V90.288H324.877Z"
        fill="#0072A9" />
    <path
        d="M347.474 90V39.12C347.474 36.24 347.058 33.936 346.226 32.208C345.458 30.416 343.634 29.52 340.754 29.52H339.794V26.64H382.13C384.37 26.64 386.066 27.024 387.218 27.792C388.37 28.496 389.17 29.456 389.618 30.672C390.066 31.824 390.29 33.04 390.29 34.32V42.48H387.41C387.41 38.384 386.354 35.44 384.242 33.648C382.194 31.856 379.25 30.96 375.41 30.96H359.954V54.96H384.914V59.28H359.954V85.68H376.37C379.89 85.68 382.866 84.912 385.298 83.376C387.794 81.776 389.874 78.896 391.538 74.736L394.13 75.696L391.346 83.28C390.642 85.328 389.714 86.96 388.562 88.176C387.474 89.392 385.618 90 382.994 90H347.474Z"
        fill="#0072A9" />
    <path
        d="M3.74876 144.743C3.21543 144.743 2.79943 144.594 2.50076 144.295C2.2021 143.997 2.05276 143.581 2.05276 143.047V105.159C2.05276 104.626 2.2021 104.21 2.50076 103.911C2.79943 103.613 3.21543 103.463 3.74876 103.463C4.26076 103.463 4.6661 103.613 4.96477 103.911C5.26343 104.21 5.41277 104.626 5.41277 105.159V143.047C5.41277 143.581 5.26343 143.997 4.96477 144.295C4.6661 144.594 4.26076 144.743 3.74876 144.743Z"
        fill="#22A947" />
    <path
        d="M22.2613 144.743C21.1306 144.743 20.5653 144.178 20.5653 143.047V105.191C20.5653 104.061 21.1306 103.495 22.2613 103.495C22.8586 103.495 23.4346 103.826 23.9893 104.487L51.0933 139.303H50.3253V105.191C50.3253 104.061 50.8906 103.495 52.0213 103.495C53.1306 103.495 53.6853 104.061 53.6853 105.191V143.047C53.6853 144.178 53.1306 144.743 52.0213 144.743C51.4026 144.743 50.8266 144.413 50.2933 143.751L23.1573 108.935H23.9253V143.047C23.9253 144.178 23.3706 144.743 22.2613 144.743Z"
        fill="#22A947" />
    <path
        d="M70.5238 144.743C69.3931 144.743 68.8278 144.178 68.8278 143.047V105.191C68.8278 104.061 69.3931 103.495 70.5238 103.495H93.5958C94.1291 103.495 94.5344 103.645 94.8118 103.943C95.1104 104.221 95.2598 104.637 95.2598 105.191C95.2598 106.301 94.7051 106.855 93.5958 106.855H72.1878V122.183H86.7798C87.9104 122.183 88.4758 122.738 88.4758 123.847C88.4758 124.978 87.9104 125.543 86.7798 125.543H72.1878V143.047C72.1878 144.178 71.6331 144.743 70.5238 144.743Z"
        fill="#22A947" />
    <path
        d="M116.32 144.743C111.691 144.743 108.31 143.677 106.176 141.543C104.043 139.41 102.976 136.029 102.976 131.399V116.807C102.976 112.135 104.043 108.743 106.176 106.631C108.31 104.498 111.67 103.453 116.256 103.495H124C128.63 103.495 132 104.562 134.112 106.695C136.246 108.829 137.312 112.21 137.312 116.839V131.399C137.312 136.029 136.246 139.41 134.112 141.543C132 143.677 128.63 144.743 124 144.743H116.32ZM116.32 141.383H124C126.454 141.383 128.406 141.063 129.856 140.423C131.307 139.783 132.352 138.738 132.992 137.287C133.632 135.837 133.952 133.874 133.952 131.399V116.839C133.952 114.386 133.632 112.434 132.992 110.983C132.352 109.533 131.307 108.487 129.856 107.847C128.406 107.186 126.454 106.855 124 106.855H116.256C113.803 106.834 111.851 107.143 110.4 107.783C108.971 108.402 107.936 109.447 107.296 110.919C106.656 112.37 106.336 114.333 106.336 116.807V131.399C106.336 133.874 106.656 135.837 107.296 137.287C107.936 138.738 108.982 139.783 110.432 140.423C111.883 141.063 113.846 141.383 116.32 141.383Z"
        fill="#22A947" />
    <path
        d="M162.195 144.679C158.376 144.679 155.539 143.837 153.683 142.151C151.848 140.445 150.867 137.767 150.739 134.119C150.717 133.607 150.856 133.202 151.155 132.903C151.475 132.583 151.891 132.423 152.403 132.423C152.915 132.423 153.32 132.573 153.619 132.871C153.917 133.17 154.088 133.575 154.131 134.087C154.216 136.775 154.856 138.653 156.051 139.719C157.245 140.786 159.293 141.319 162.195 141.319H171.411C174.44 141.319 176.541 140.733 177.715 139.559C178.909 138.365 179.507 136.274 179.507 133.287C179.507 130.258 178.909 128.157 177.715 126.983C176.541 125.789 174.44 125.191 171.411 125.191H162.643C158.888 125.191 156.136 124.317 154.387 122.567C152.637 120.818 151.763 118.077 151.763 114.343C151.763 110.61 152.627 107.869 154.355 106.119C156.104 104.37 158.845 103.495 162.579 103.495H171.539C175.123 103.495 177.779 104.295 179.507 105.895C181.256 107.495 182.195 110.013 182.323 113.447C182.365 113.959 182.227 114.375 181.907 114.695C181.608 114.994 181.192 115.143 180.659 115.143C180.168 115.143 179.773 114.994 179.475 114.695C179.176 114.397 179.005 113.991 178.963 113.479C178.877 111.026 178.28 109.309 177.171 108.327C176.061 107.346 174.184 106.855 171.539 106.855H162.579C159.784 106.855 157.843 107.41 156.755 108.519C155.667 109.607 155.123 111.549 155.123 114.343C155.123 117.138 155.667 119.09 156.755 120.199C157.864 121.287 159.827 121.831 162.643 121.831H171.411C175.379 121.831 178.28 122.759 180.115 124.615C181.949 126.45 182.867 129.341 182.867 133.287C182.867 137.234 181.949 140.125 180.115 141.959C178.28 143.773 175.379 144.679 171.411 144.679H162.195Z"
        fill="#22A947" />
    <path
        d="M207.096 144.743C205.986 144.743 205.432 144.178 205.432 143.047V128.807L191.096 106.151C190.52 105.234 190.701 104.455 191.64 103.815C192.6 103.218 193.378 103.399 193.976 104.359L207.096 125.191L220.44 104.327C220.738 103.879 221.08 103.613 221.464 103.527C221.848 103.442 222.274 103.549 222.744 103.847C223.704 104.423 223.874 105.191 223.256 106.151L208.792 128.807V143.047C208.792 144.178 208.226 144.743 207.096 144.743Z"
        fill="#22A947" />
    <path
        d="M242.345 144.679C238.526 144.679 235.689 143.837 233.833 142.151C231.998 140.445 231.017 137.767 230.889 134.119C230.867 133.607 231.006 133.202 231.305 132.903C231.625 132.583 232.041 132.423 232.553 132.423C233.065 132.423 233.47 132.573 233.769 132.871C234.067 133.17 234.238 133.575 234.281 134.087C234.366 136.775 235.006 138.653 236.201 139.719C237.395 140.786 239.443 141.319 242.345 141.319H251.561C254.59 141.319 256.691 140.733 257.865 139.559C259.059 138.365 259.657 136.274 259.657 133.287C259.657 130.258 259.059 128.157 257.865 126.983C256.691 125.789 254.59 125.191 251.561 125.191H242.793C239.038 125.191 236.286 124.317 234.537 122.567C232.787 120.818 231.913 118.077 231.913 114.343C231.913 110.61 232.777 107.869 234.505 106.119C236.254 104.37 238.995 103.495 242.729 103.495H251.689C255.273 103.495 257.929 104.295 259.657 105.895C261.406 107.495 262.345 110.013 262.473 113.447C262.515 113.959 262.377 114.375 262.057 114.695C261.758 114.994 261.342 115.143 260.809 115.143C260.318 115.143 259.923 114.994 259.625 114.695C259.326 114.397 259.155 113.991 259.113 113.479C259.027 111.026 258.43 109.309 257.321 108.327C256.211 107.346 254.334 106.855 251.689 106.855H242.729C239.934 106.855 237.993 107.41 236.905 108.519C235.817 109.607 235.273 111.549 235.273 114.343C235.273 117.138 235.817 119.09 236.905 120.199C238.014 121.287 239.977 121.831 242.793 121.831H251.561C255.529 121.831 258.43 122.759 260.265 124.615C262.099 126.45 263.017 129.341 263.017 133.287C263.017 137.234 262.099 140.125 260.265 141.959C258.43 143.773 255.529 144.679 251.561 144.679H242.345Z"
        fill="#22A947" />
    <path
        d="M286.332 144.775C285.82 144.775 285.404 144.626 285.084 144.327C284.786 144.029 284.636 143.623 284.636 143.111V106.823H271.036C270.524 106.823 270.108 106.674 269.788 106.375C269.49 106.077 269.34 105.671 269.34 105.159C269.34 104.647 269.49 104.242 269.788 103.943C270.108 103.623 270.524 103.463 271.036 103.463H301.628C302.14 103.463 302.546 103.623 302.844 103.943C303.143 104.242 303.292 104.647 303.292 105.159C303.292 105.671 303.143 106.077 302.844 106.375C302.546 106.674 302.14 106.823 301.628 106.823H287.996V143.111C287.996 143.602 287.836 144.007 287.516 144.327C287.218 144.626 286.823 144.775 286.332 144.775Z"
        fill="#22A947" />
    <path
        d="M315.349 144.743C314.218 144.743 313.653 144.178 313.653 143.047V105.191C313.653 104.061 314.218 103.495 315.349 103.495H339.317C340.447 103.495 341.013 104.061 341.013 105.191C341.013 106.301 340.447 106.855 339.317 106.855H317.013V122.183H331.765C332.895 122.183 333.461 122.738 333.461 123.847C333.461 124.978 332.895 125.543 331.765 125.543H317.013V141.383H339.317C340.447 141.383 341.013 141.938 341.013 143.047C341.013 144.178 340.447 144.743 339.317 144.743H315.349Z"
        fill="#22A947" />
    <path
        d="M354.424 144.743C353.293 144.743 352.728 144.178 352.728 143.047V105.191C352.728 104.061 353.293 103.495 354.424 103.495C355.234 103.495 355.874 103.869 356.344 104.615L372.28 128.967L371.512 129.063L387.448 104.615C387.896 103.869 388.568 103.495 389.464 103.495C390.466 103.495 390.968 104.061 390.968 105.191V143.047C390.968 144.178 390.413 144.743 389.304 144.743C388.173 144.743 387.608 144.178 387.608 143.047V108.551L388.6 108.871L373.816 131.399C373.346 132.125 372.674 132.487 371.8 132.487C371.032 132.487 370.413 132.125 369.944 131.399L355.16 108.871L356.088 109.223V143.047C356.088 144.178 355.533 144.743 354.424 144.743Z"
        fill="#22A947" />
    <path fill-rule="evenodd" clip-rule="evenodd"
        d="M450.847 149.57C446.784 152.008 443.099 153.46 439.233 153.46C429.226 153.46 420.862 145.183 420.381 135.278L439.883 123.574L470.192 137.232L450.847 149.578V149.57Z"
        fill="#71B0D1" />
    <path fill-rule="evenodd" clip-rule="evenodd"
        d="M462.667 99.644L448.039 93.3783C441.497 90.5541 435.325 88.1737 435.325 81.1818C435.325 77.5507 436.458 75.6545 438.23 73.7623L469.196 87.044L461.521 91.3489C459.408 92.6117 457.943 93.7212 457.943 95.3028C457.943 97.0134 459.956 98.4699 462.667 99.6641V99.644Z"
        fill="#A4D0A0" />
    <path fill-rule="evenodd" clip-rule="evenodd"
        d="M476.346 32.5919L461.48 41.4892C460.159 42.2763 458.395 43.5421 458.395 45.4977C458.395 47.7169 461.825 49.4209 464.878 50.8491L446.272 42.7348C440.792 40.3573 435.325 37.6552 435.325 31.1395C435.297 28.696 436.026 26.3023 437.415 24.2788L477.634 0.0415039C482.455 2.73544 487.128 8.18824 487.128 15.4951C487.128 23.3214 483.109 28.5591 476.346 32.5716V32.5919Z"
        fill="#71B0D1" />
    <path fill-rule="evenodd" clip-rule="evenodd"
        d="M508.281 61.7186L504.613 63.8L474.177 50.3059L509.552 28.9321C514.325 31.6963 519.008 37.1389 519.008 44.4994C519.008 52.3832 515.132 57.8217 508.269 61.7023L508.281 61.7186Z"
        fill="#A4D0A0" />
    <path fill-rule="evenodd" clip-rule="evenodd"
        d="M482.15 87.7094L500.201 95.6443C506.965 98.6777 509.045 102.234 509.045 106.727C509.045 109.282 507.603 111.849 505.531 113.611L475.174 100.121L480.311 97.2591C484.651 94.8594 486.094 93.4163 486.094 91.8179C486.094 90.1541 485.08 89.0585 482.15 87.7299V87.7094Z"
        fill="#71B0D1" />
    <path fill-rule="evenodd" clip-rule="evenodd"
        d="M514.974 154.457C507.252 148.576 499.013 144.597 488.998 140.103L442.709 119.852C431.079 114.723 423.37 107.892 423.37 96.3905C423.37 85.2146 428.84 79.8054 435.953 75.3553L438.521 73.7623C436.754 75.6683 435.645 77.5783 435.645 81.2359C435.645 88.2788 441.756 90.6603 448.232 93.5213L502.066 116.991C511.431 120.969 520.004 127.813 520.004 139.465C520.004 145.869 517.538 151.6 514.97 154.457H514.974Z"
        fill="#22A947" />
    <path fill-rule="evenodd" clip-rule="evenodd"
        d="M509.263 111.508L505.9 113.611C507.977 111.837 509.423 109.253 509.423 106.68C509.423 102.153 507.334 98.576 500.558 95.522L443.165 70.1352C431.58 64.9904 424.366 58.3391 424.366 46.7447C424.366 36.0681 429.655 29.0958 438.032 23.9509C436.645 26.0012 435.915 28.428 435.939 30.9068C435.939 37.5169 441.383 40.2581 446.84 42.67L502.639 67.3982C512.786 71.9257 521 78.7169 521 91.1633C521 100.873 516.494 106.993 509.263 111.504V111.508Z"
        fill="#0072A9" />
</svg>
